<?xml version="1.0" encoding="UTF-8" standalone="no"?>
<!DOCTYPE svg PUBLIC "-//W3C//DTD SVG 1.1//EN" "http://www.w3.org/Graphics/SVG/1.1/DTD/svg11.dtd">
<svg width="100%" height="100%" viewBox="0 0 2096 1650" version="1.1" xmlns="http://www.w3.org/2000/svg" xmlns:xlink="http://www.w3.org/1999/xlink" xml:space="preserve" xmlns:serif="http://www.serif.com/" style="fill-rule:evenodd;clip-rule:evenodd;stroke-linejoin:round;stroke-miterlimit:1.41421;">
    <g id="Artboard1" transform="matrix(1,0,0,1,-224.369,-677.999)">
        <rect x="224.369" y="677.999" width="2095.33" height="1650" style="fill:none;"/>
        <g transform="matrix(13.4715,0,0,13.4715,1376.86,916.546)">
            <path d="M0,0C0,3.695 -3.015,6.691 -6.735,6.691C-10.454,6.691 -13.469,3.695 -13.469,0C-13.469,-3.695 -10.454,-6.691 -6.735,-6.691C-3.015,-6.691 0,-3.695 0,0" style="fill:rgb(172,201,95);fill-rule:nonzero;"/>
        </g>
        <g transform="matrix(13.4715,0,0,13.4715,1298.84,867.747)">
            <path d="M0,7.277L-1.077,6.462C-1.268,6.317 -1.513,6.279 -1.733,6.36L-2.972,6.815C-3.526,7.019 -4.072,6.466 -3.896,5.88L-3.503,4.569C-3.433,4.336 -3.478,4.081 -3.623,3.886L-4.437,2.788C-4.802,2.297 -4.476,1.591 -3.886,1.593L-2.567,1.598C-2.332,1.598 -2.115,1.479 -1.984,1.277L-1.249,0.143C-0.92,-0.364 -0.173,-0.248 0.016,0.34L0.439,1.654C0.514,1.887 0.693,2.068 0.918,2.139L2.188,2.536C2.755,2.714 2.891,3.492 2.418,3.853L1.359,4.66C1.172,4.803 1.065,5.035 1.073,5.28L1.123,6.66C1.145,7.277 0.481,7.641 0,7.277" style="fill:rgb(209,255,159);fill-rule:nonzero;"/>
        </g>
        <g transform="matrix(13.4715,0,0,13.4715,1312.75,944.448)">
            <path d="M0,0C0,0.334 -0.219,0.605 -0.489,0.605C-0.759,0.605 -0.978,0.334 -0.978,0C-0.978,-0.334 -0.759,-0.605 -0.489,-0.605C-0.219,-0.605 0,-0.334 0,0" style="fill:rgb(51,51,51);fill-rule:nonzero;"/>
        </g>
        <g transform="matrix(13.4715,0,0,13.4715,1321.71,956.45)">
            <path d="M0,0C0,0.218 -0.14,0.396 -0.313,0.396C-0.486,0.396 -0.626,0.218 -0.626,0C-0.626,-0.218 -0.486,-0.396 -0.313,-0.396C-0.14,-0.396 0,-0.218 0,0" style="fill:rgb(51,51,51);fill-rule:nonzero;"/>
        </g>
        <g transform="matrix(13.4715,0,0,13.4715,1303.79,857.668)">
            <path d="M0,0C0,0.218 -0.14,0.396 -0.313,0.396C-0.486,0.396 -0.626,0.218 -0.626,0C-0.626,-0.219 -0.486,-0.396 -0.313,-0.396C-0.14,-0.396 0,-0.219 0,0" style="fill:rgb(51,51,51);fill-rule:nonzero;"/>
        </g>
        <g transform="matrix(13.4715,0,0,13.4715,1254.51,887.302)">
            <path d="M0,0C0,0.218 -0.14,0.396 -0.313,0.396C-0.486,0.396 -0.626,0.218 -0.626,0C-0.626,-0.219 -0.486,-0.396 -0.313,-0.396C-0.14,-0.396 0,-0.219 0,0" style="fill:rgb(51,51,51);fill-rule:nonzero;"/>
        </g>
        <g transform="matrix(13.4715,0,0,13.4715,1256.33,955.519)">
            <path d="M0,0C0,0.383 -0.175,0.693 -0.39,0.693C-0.606,0.693 -0.781,0.383 -0.781,0C-0.781,-0.383 -0.606,-0.693 -0.39,-0.693C-0.175,-0.693 0,-0.383 0,0" style="fill:rgb(51,51,51);fill-rule:nonzero;"/>
        </g>
        <g transform="matrix(13.4715,0,0,13.4715,1314.14,874.193)">
            <path d="M0,0.341C-0.137,0.693 -0.409,0.901 -0.607,0.807C-0.805,0.713 -0.854,0.352 -0.717,0C-0.579,-0.351 -0.307,-0.56 -0.11,-0.466C0.088,-0.372 0.137,-0.011 0,0.341" style="fill:rgb(51,51,51);fill-rule:nonzero;"/>
        </g>
        <g transform="matrix(13.4715,0,0,13.4715,1339.63,926.347)">
            <path d="M0,0C0,0.134 -0.109,0.242 -0.245,0.242C-0.38,0.242 -0.489,0.134 -0.489,0C-0.489,-0.134 -0.38,-0.242 -0.245,-0.242C-0.109,-0.242 0,-0.134 0,0" style="fill:rgb(51,51,51);fill-rule:nonzero;"/>
        </g>
        <g transform="matrix(13.4715,0,0,13.4715,1330.67,896.712)">
            <path d="M0,0C0,0.134 -0.109,0.242 -0.245,0.242C-0.38,0.242 -0.489,0.134 -0.489,0C-0.489,-0.134 -0.38,-0.242 -0.245,-0.242C-0.109,-0.242 0,-0.134 0,0" style="fill:rgb(51,51,51);fill-rule:nonzero;"/>
        </g>
        <g transform="matrix(13.4715,0,0,13.4715,1285.87,862.138)">
            <path d="M0,0C0,0.134 -0.109,0.242 -0.245,0.242C-0.38,0.242 -0.489,0.134 -0.489,0C-0.489,-0.134 -0.38,-0.242 -0.245,-0.242C-0.109,-0.242 0,-0.134 0,0" style="fill:rgb(51,51,51);fill-rule:nonzero;"/>
        </g>
        <g transform="matrix(13.4715,0,0,13.4715,1339.51,916.099)">
            <path d="M0,-0.193C0.022,-0.084 -0.139,0.047 -0.36,0.101C-0.58,0.154 -0.776,0.108 -0.798,0C-0.819,-0.109 -0.658,-0.241 -0.438,-0.294C-0.218,-0.347 -0.022,-0.302 0,-0.193" style="fill:rgb(51,51,51);fill-rule:nonzero;"/>
        </g>
        <g transform="matrix(13.4715,0,0,13.4715,1241.07,934.552)">
            <path d="M0,0C0,0.112 -0.183,0.202 -0.408,0.202C-0.634,0.202 -0.817,0.112 -0.817,0C-0.817,-0.112 -0.634,-0.202 -0.408,-0.202C-0.183,-0.202 0,-0.112 0,0" style="fill:rgb(51,51,51);fill-rule:nonzero;"/>
        </g>
        <g transform="matrix(13.4715,0,0,13.4715,1266.9,952.931)">
            <path d="M0,-0.529C0.06,-0.439 -0.04,-0.247 -0.223,-0.101C-0.405,0.045 -0.601,0.09 -0.661,0C-0.72,-0.09 -0.62,-0.282 -0.438,-0.428C-0.256,-0.574 -0.059,-0.619 0,-0.529" style="fill:rgb(51,51,51);fill-rule:nonzero;"/>
        </g>
        <g transform="matrix(13.4715,0,0,13.4715,1318.48,888.724)">
            <path d="M0,-0.399C0.059,-0.309 -0.004,-0.146 -0.141,-0.036C-0.279,0.074 -0.439,0.09 -0.498,0C-0.558,-0.09 -0.494,-0.253 -0.357,-0.363C-0.219,-0.473 -0.059,-0.489 0,-0.399" style="fill:rgb(51,51,51);fill-rule:nonzero;"/>
        </g>
        <g transform="matrix(13.4715,0,0,13.4715,1322.96,933.175)">
            <path d="M0,-0.399C0.059,-0.309 -0.004,-0.146 -0.141,-0.036C-0.279,0.074 -0.439,0.09 -0.498,0C-0.558,-0.09 -0.494,-0.253 -0.357,-0.363C-0.219,-0.473 -0.06,-0.489 0,-0.399" style="fill:rgb(51,51,51);fill-rule:nonzero;"/>
        </g>
        <g transform="matrix(13.4715,0,0,13.4715,1296.08,962.81)">
            <path d="M0,-0.399C0.059,-0.309 -0.004,-0.146 -0.141,-0.036C-0.279,0.074 -0.439,0.09 -0.498,0C-0.558,-0.09 -0.494,-0.253 -0.357,-0.363C-0.219,-0.473 -0.06,-0.489 0,-0.399" style="fill:rgb(51,51,51);fill-rule:nonzero;"/>
        </g>
        <g transform="matrix(13.4715,0,0,13.4715,1243.05,910.019)">
            <path d="M0,0.106C-0.016,0.216 -0.165,0.282 -0.333,0.252C-0.501,0.223 -0.624,0.11 -0.608,0C-0.593,-0.11 -0.444,-0.176 -0.276,-0.147C-0.108,-0.117 0.016,-0.004 0,0.106" style="fill:rgb(51,51,51);fill-rule:nonzero;"/>
        </g>
        <g transform="matrix(13.4715,0,0,13.4715,1241.07,923.088)">
            <path d="M0,0C0,0.268 -0.219,0.486 -0.489,0.486C-0.759,0.486 -0.978,0.268 -0.978,0C-0.978,-0.268 -0.759,-0.486 -0.489,-0.486C-0.219,-0.486 0,-0.268 0,0" style="fill:rgb(51,51,51);fill-rule:nonzero;"/>
        </g>
        <g transform="matrix(13.4715,0,0,13.4715,1267.95,880.239)">
            <path d="M0,0C0,0.334 -0.219,0.605 -0.489,0.605C-0.759,0.605 -0.978,0.334 -0.978,0C-0.978,-0.334 -0.759,-0.605 -0.489,-0.605C-0.219,-0.605 0,-0.334 0,0" style="fill:rgb(51,51,51);fill-rule:nonzero;"/>
        </g>
        <g transform="matrix(13.4715,0,0,13.4715,1477.37,942.317)">
            <path d="M0,0C0,2.639 -2.153,4.778 -4.809,4.778C-7.465,4.778 -9.618,2.639 -9.618,0C-9.618,-2.639 -7.465,-4.778 -4.809,-4.778C-2.153,-4.778 0,-2.639 0,0" style="fill:rgb(172,201,95);fill-rule:nonzero;"/>
        </g>
        <g transform="matrix(13.4715,0,0,13.4715,1421.65,907.476)">
            <path d="M0,5.196L-0.769,4.614C-0.905,4.511 -1.081,4.483 -1.238,4.541L-2.122,4.866C-2.518,5.012 -2.908,4.617 -2.782,4.199L-2.502,3.262C-2.452,3.096 -2.484,2.914 -2.587,2.775L-3.169,1.99C-3.429,1.64 -3.196,1.135 -2.775,1.137L-1.833,1.14C-1.666,1.141 -1.51,1.055 -1.417,0.912L-0.892,0.102C-0.657,-0.26 -0.123,-0.177 0.012,0.242L0.313,1.18C0.367,1.347 0.495,1.477 0.656,1.527L1.562,1.811C1.967,1.937 2.064,2.493 1.727,2.751L0.971,3.327C0.837,3.43 0.76,3.595 0.767,3.77L0.802,4.755C0.817,5.196 0.344,5.456 0,5.196" style="fill:rgb(209,255,159);fill-rule:nonzero;"/>
        </g>
        <g transform="matrix(13.4715,0,0,13.4715,1431.59,962.242)">
            <path d="M0,0C0,0.238 -0.156,0.432 -0.349,0.432C-0.542,0.432 -0.698,0.238 -0.698,0C-0.698,-0.238 -0.542,-0.432 -0.349,-0.432C-0.156,-0.432 0,-0.238 0,0" style="fill:rgb(51,51,51);fill-rule:nonzero;"/>
        </g>
        <g transform="matrix(13.4715,0,0,13.4715,1437.99,970.812)">
            <path d="M0,0C0,0.156 -0.1,0.283 -0.223,0.283C-0.347,0.283 -0.447,0.156 -0.447,0C-0.447,-0.156 -0.347,-0.283 -0.223,-0.283C-0.1,-0.283 0,-0.156 0,0" style="fill:rgb(51,51,51);fill-rule:nonzero;"/>
        </g>
        <g transform="matrix(13.4715,0,0,13.4715,1425.19,900.271)">
            <path d="M0,0C0,0.156 -0.1,0.283 -0.223,0.283C-0.347,0.283 -0.447,0.156 -0.447,0C-0.447,-0.156 -0.347,-0.283 -0.223,-0.283C-0.1,-0.283 0,-0.156 0,0" style="fill:rgb(51,51,51);fill-rule:nonzero;"/>
        </g>
        <g transform="matrix(13.4715,0,0,13.4715,1390,921.434)">
            <path d="M0,0C0,0.156 -0.1,0.283 -0.223,0.283C-0.347,0.283 -0.447,0.156 -0.447,0C-0.447,-0.156 -0.347,-0.283 -0.223,-0.283C-0.1,-0.283 0,-0.156 0,0" style="fill:rgb(51,51,51);fill-rule:nonzero;"/>
        </g>
        <g transform="matrix(13.4715,0,0,13.4715,1391.3,970.147)">
            <path d="M0,0C0,0.273 -0.125,0.495 -0.279,0.495C-0.433,0.495 -0.557,0.273 -0.557,0C-0.557,-0.273 -0.433,-0.495 -0.279,-0.495C-0.125,-0.495 0,-0.273 0,0" style="fill:rgb(51,51,51);fill-rule:nonzero;"/>
        </g>
        <g transform="matrix(13.4715,0,0,13.4715,1432.58,912.079)">
            <path d="M0,0.243C-0.098,0.494 -0.292,0.643 -0.434,0.576C-0.575,0.509 -0.61,0.251 -0.512,0C-0.414,-0.251 -0.22,-0.4 -0.078,-0.333C0.063,-0.266 0.098,-0.008 0,0.243" style="fill:rgb(51,51,51);fill-rule:nonzero;"/>
        </g>
        <g transform="matrix(13.4715,0,0,13.4715,1450.79,949.316)">
            <path d="M0,0C0,0.096 -0.078,0.173 -0.175,0.173C-0.271,0.173 -0.349,0.096 -0.349,0C-0.349,-0.096 -0.271,-0.173 -0.175,-0.173C-0.078,-0.173 0,-0.096 0,0" style="fill:rgb(51,51,51);fill-rule:nonzero;"/>
        </g>
        <g transform="matrix(13.4715,0,0,13.4715,1444.39,928.153)">
            <path d="M0,0C0,0.096 -0.078,0.173 -0.175,0.173C-0.271,0.173 -0.349,0.096 -0.349,0C-0.349,-0.096 -0.271,-0.173 -0.175,-0.173C-0.078,-0.173 0,-0.096 0,0" style="fill:rgb(51,51,51);fill-rule:nonzero;"/>
        </g>
        <g transform="matrix(13.4715,0,0,13.4715,1412.39,903.464)">
            <path d="M0,0C0,0.096 -0.078,0.173 -0.175,0.173C-0.271,0.173 -0.349,0.096 -0.349,0C-0.349,-0.096 -0.271,-0.173 -0.175,-0.173C-0.078,-0.173 0,-0.096 0,0" style="fill:rgb(51,51,51);fill-rule:nonzero;"/>
        </g>
        <g transform="matrix(13.4715,0,0,13.4715,1450.7,941.999)">
            <path d="M0,-0.138C0.015,-0.06 -0.1,0.034 -0.257,0.072C-0.414,0.11 -0.554,0.077 -0.57,-0.001C-0.585,-0.078 -0.47,-0.172 -0.313,-0.21C-0.155,-0.248 -0.015,-0.216 0,-0.138" style="fill:rgb(51,51,51);fill-rule:nonzero;"/>
        </g>
        <g transform="matrix(13.4715,0,0,13.4715,1380.4,955.174)">
            <path d="M0,0C0,0.08 -0.131,0.144 -0.292,0.144C-0.453,0.144 -0.583,0.08 -0.583,0C-0.583,-0.08 -0.453,-0.144 -0.292,-0.144C-0.131,-0.144 0,-0.08 0,0" style="fill:rgb(51,51,51);fill-rule:nonzero;"/>
        </g>
        <g transform="matrix(13.4715,0,0,13.4715,1398.85,968.302)">
            <path d="M0,-0.378C0.042,-0.314 -0.029,-0.177 -0.159,-0.072C-0.289,0.032 -0.429,0.064 -0.472,0C-0.514,-0.064 -0.443,-0.201 -0.313,-0.306C-0.182,-0.41 -0.042,-0.442 0,-0.378" style="fill:rgb(51,51,51);fill-rule:nonzero;"/>
        </g>
        <g transform="matrix(13.4715,0,0,13.4715,1435.68,922.463)">
            <path d="M0,-0.286C0.042,-0.222 -0.003,-0.106 -0.101,-0.027C-0.199,0.052 -0.313,0.064 -0.356,-0.001C-0.398,-0.065 -0.353,-0.181 -0.255,-0.26C-0.157,-0.339 -0.042,-0.35 0,-0.286" style="fill:rgb(51,51,51);fill-rule:nonzero;"/>
        </g>
        <g transform="matrix(13.4715,0,0,13.4715,1438.88,954.206)">
            <path d="M0,-0.286C0.042,-0.222 -0.003,-0.106 -0.101,-0.027C-0.199,0.052 -0.313,0.064 -0.356,-0.001C-0.398,-0.065 -0.353,-0.181 -0.255,-0.26C-0.157,-0.339 -0.042,-0.35 0,-0.286" style="fill:rgb(51,51,51);fill-rule:nonzero;"/>
        </g>
        <g transform="matrix(13.4715,0,0,13.4715,1419.68,975.368)">
            <path d="M0,-0.286C0.042,-0.222 -0.003,-0.106 -0.101,-0.027C-0.199,0.052 -0.313,0.064 -0.356,-0.001C-0.398,-0.065 -0.353,-0.181 -0.255,-0.26C-0.157,-0.339 -0.042,-0.35 0,-0.286" style="fill:rgb(51,51,51);fill-rule:nonzero;"/>
        </g>
        <g transform="matrix(13.4715,0,0,13.4715,1381.82,937.652)">
            <path d="M0,0.076C-0.011,0.155 -0.118,0.201 -0.238,0.181C-0.358,0.16 -0.446,0.079 -0.434,0C-0.423,-0.078 -0.317,-0.125 -0.197,-0.104C-0.077,-0.083 0.011,-0.003 0,0.076" style="fill:rgb(51,51,51);fill-rule:nonzero;"/>
        </g>
        <g transform="matrix(13.4715,0,0,13.4715,1380.4,946.989)">
            <path d="M0,0C0,0.192 -0.156,0.347 -0.349,0.347C-0.542,0.347 -0.698,0.192 -0.698,0C-0.698,-0.192 -0.542,-0.347 -0.349,-0.347C-0.156,-0.347 0,-0.192 0,0" style="fill:rgb(51,51,51);fill-rule:nonzero;"/>
        </g>
        <g transform="matrix(13.4715,0,0,13.4715,1399.6,916.39)">
            <path d="M0,0C0,0.238 -0.156,0.432 -0.349,0.432C-0.542,0.432 -0.698,0.238 -0.698,0C-0.698,-0.238 -0.542,-0.432 -0.349,-0.432C-0.156,-0.432 0,-0.238 0,0" style="fill:rgb(51,51,51);fill-rule:nonzero;"/>
        </g>
        <g transform="matrix(13.4715,0,0,13.4715,1224.01,942.317)">
            <path d="M0,0C0,2.639 -2.153,4.778 -4.809,4.778C-7.465,4.778 -9.618,2.639 -9.618,0C-9.618,-2.639 -7.465,-4.778 -4.809,-4.778C-2.153,-4.778 0,-2.639 0,0" style="fill:rgb(172,201,95);fill-rule:nonzero;"/>
        </g>
        <g transform="matrix(13.4715,0,0,13.4715,1168.29,907.476)">
            <path d="M0,5.196L-0.769,4.614C-0.905,4.511 -1.081,4.483 -1.238,4.541L-2.122,4.866C-2.518,5.012 -2.908,4.617 -2.782,4.199L-2.502,3.262C-2.452,3.096 -2.484,2.914 -2.587,2.775L-3.169,1.99C-3.429,1.64 -3.196,1.135 -2.775,1.137L-1.833,1.14C-1.666,1.141 -1.51,1.055 -1.417,0.912L-0.892,0.102C-0.657,-0.26 -0.123,-0.177 0.012,0.242L0.313,1.18C0.367,1.347 0.495,1.477 0.656,1.527L1.562,1.811C1.967,1.937 2.064,2.493 1.727,2.751L0.971,3.327C0.837,3.43 0.76,3.595 0.767,3.77L0.802,4.755C0.817,5.196 0.344,5.456 0,5.196" style="fill:rgb(209,255,159);fill-rule:nonzero;"/>
        </g>
        <g transform="matrix(13.4715,0,0,13.4715,1178.23,962.242)">
            <path d="M0,0C0,0.238 -0.156,0.432 -0.349,0.432C-0.542,0.432 -0.698,0.238 -0.698,0C-0.698,-0.238 -0.542,-0.432 -0.349,-0.432C-0.156,-0.432 0,-0.238 0,0" style="fill:rgb(51,51,51);fill-rule:nonzero;"/>
        </g>
        <g transform="matrix(13.4715,0,0,13.4715,1184.63,970.812)">
            <path d="M0,0C0,0.156 -0.1,0.283 -0.223,0.283C-0.347,0.283 -0.447,0.156 -0.447,0C-0.447,-0.156 -0.347,-0.283 -0.223,-0.283C-0.1,-0.283 0,-0.156 0,0" style="fill:rgb(51,51,51);fill-rule:nonzero;"/>
        </g>
        <g transform="matrix(13.4715,0,0,13.4715,1171.83,900.271)">
            <path d="M0,0C0,0.156 -0.1,0.283 -0.223,0.283C-0.347,0.283 -0.447,0.156 -0.447,0C-0.447,-0.156 -0.347,-0.283 -0.223,-0.283C-0.1,-0.283 0,-0.156 0,0" style="fill:rgb(51,51,51);fill-rule:nonzero;"/>
        </g>
        <g transform="matrix(13.4715,0,0,13.4715,1136.64,921.434)">
            <path d="M0,0C0,0.156 -0.1,0.283 -0.223,0.283C-0.347,0.283 -0.447,0.156 -0.447,0C-0.447,-0.156 -0.347,-0.283 -0.223,-0.283C-0.1,-0.283 0,-0.156 0,0" style="fill:rgb(51,51,51);fill-rule:nonzero;"/>
        </g>
        <g transform="matrix(13.4715,0,0,13.4715,1137.94,970.147)">
            <path d="M0,0C0,0.273 -0.125,0.495 -0.279,0.495C-0.433,0.495 -0.557,0.273 -0.557,0C-0.557,-0.273 -0.433,-0.495 -0.279,-0.495C-0.125,-0.495 0,-0.273 0,0" style="fill:rgb(51,51,51);fill-rule:nonzero;"/>
        </g>
        <g transform="matrix(13.4715,0,0,13.4715,1179.22,912.079)">
            <path d="M0,0.243C-0.098,0.494 -0.292,0.643 -0.434,0.576C-0.575,0.509 -0.61,0.251 -0.512,0C-0.414,-0.251 -0.22,-0.4 -0.078,-0.333C0.063,-0.266 0.098,-0.008 0,0.243" style="fill:rgb(51,51,51);fill-rule:nonzero;"/>
        </g>
        <g transform="matrix(13.4715,0,0,13.4715,1197.42,949.316)">
            <path d="M0,0C0,0.096 -0.078,0.173 -0.175,0.173C-0.271,0.173 -0.349,0.096 -0.349,0C-0.349,-0.096 -0.271,-0.173 -0.175,-0.173C-0.078,-0.173 0,-0.096 0,0" style="fill:rgb(51,51,51);fill-rule:nonzero;"/>
        </g>
        <g transform="matrix(13.4715,0,0,13.4715,1191.03,928.153)">
            <path d="M0,0C0,0.096 -0.078,0.173 -0.175,0.173C-0.271,0.173 -0.349,0.096 -0.349,0C-0.349,-0.096 -0.271,-0.173 -0.175,-0.173C-0.078,-0.173 0,-0.096 0,0" style="fill:rgb(51,51,51);fill-rule:nonzero;"/>
        </g>
        <g transform="matrix(13.4715,0,0,13.4715,1159.03,903.464)">
            <path d="M0,0C0,0.096 -0.078,0.173 -0.175,0.173C-0.271,0.173 -0.349,0.096 -0.349,0C-0.349,-0.096 -0.271,-0.173 -0.175,-0.173C-0.078,-0.173 0,-0.096 0,0" style="fill:rgb(51,51,51);fill-rule:nonzero;"/>
        </g>
        <g transform="matrix(13.4715,0,0,13.4715,1197.33,941.999)">
            <path d="M0,-0.138C0.015,-0.06 -0.1,0.034 -0.257,0.072C-0.414,0.11 -0.554,0.077 -0.57,-0.001C-0.585,-0.078 -0.47,-0.172 -0.313,-0.21C-0.155,-0.248 -0.015,-0.216 0,-0.138" style="fill:rgb(51,51,51);fill-rule:nonzero;"/>
        </g>
        <g transform="matrix(13.4715,0,0,13.4715,1127.04,955.174)">
            <path d="M0,0C0,0.08 -0.131,0.144 -0.292,0.144C-0.453,0.144 -0.583,0.08 -0.583,0C-0.583,-0.08 -0.453,-0.144 -0.292,-0.144C-0.131,-0.144 0,-0.08 0,0" style="fill:rgb(51,51,51);fill-rule:nonzero;"/>
        </g>
        <g transform="matrix(13.4715,0,0,13.4715,1145.48,968.302)">
            <path d="M0,-0.378C0.042,-0.314 -0.029,-0.177 -0.159,-0.072C-0.289,0.032 -0.429,0.064 -0.472,0C-0.514,-0.064 -0.443,-0.201 -0.313,-0.306C-0.182,-0.41 -0.042,-0.442 0,-0.378" style="fill:rgb(51,51,51);fill-rule:nonzero;"/>
        </g>
        <g transform="matrix(13.4715,0,0,13.4715,1182.32,922.463)">
            <path d="M0,-0.286C0.042,-0.222 -0.003,-0.106 -0.101,-0.027C-0.199,0.052 -0.313,0.064 -0.356,-0.001C-0.398,-0.065 -0.353,-0.181 -0.255,-0.26C-0.157,-0.339 -0.042,-0.35 0,-0.286" style="fill:rgb(51,51,51);fill-rule:nonzero;"/>
        </g>
        <g transform="matrix(13.4715,0,0,13.4715,1185.51,954.206)">
            <path d="M0,-0.286C0.042,-0.222 -0.003,-0.106 -0.101,-0.027C-0.199,0.052 -0.313,0.064 -0.356,-0.001C-0.398,-0.065 -0.353,-0.181 -0.255,-0.26C-0.157,-0.339 -0.042,-0.35 0,-0.286" style="fill:rgb(51,51,51);fill-rule:nonzero;"/>
        </g>
        <g transform="matrix(13.4715,0,0,13.4715,1166.32,975.368)">
            <path d="M0,-0.286C0.042,-0.222 -0.003,-0.106 -0.101,-0.027C-0.199,0.052 -0.313,0.064 -0.356,-0.001C-0.398,-0.065 -0.353,-0.181 -0.255,-0.26C-0.157,-0.339 -0.042,-0.35 0,-0.286" style="fill:rgb(51,51,51);fill-rule:nonzero;"/>
        </g>
        <g transform="matrix(13.4715,0,0,13.4715,1128.46,937.652)">
            <path d="M0,0.076C-0.011,0.155 -0.118,0.201 -0.238,0.181C-0.358,0.16 -0.446,0.079 -0.434,0C-0.423,-0.078 -0.317,-0.125 -0.197,-0.104C-0.077,-0.083 0.011,-0.003 0,0.076" style="fill:rgb(51,51,51);fill-rule:nonzero;"/>
        </g>
        <g transform="matrix(13.4715,0,0,13.4715,1127.04,946.989)">
            <path d="M0,0C0,0.192 -0.156,0.347 -0.349,0.347C-0.542,0.347 -0.698,0.192 -0.698,0C-0.698,-0.192 -0.542,-0.347 -0.349,-0.347C-0.156,-0.347 0,-0.192 0,0" style="fill:rgb(51,51,51);fill-rule:nonzero;"/>
        </g>
        <g transform="matrix(13.4715,0,0,13.4715,1146.23,916.39)">
            <path d="M0,0C0,0.238 -0.156,0.432 -0.349,0.432C-0.542,0.432 -0.698,0.238 -0.698,0C-0.698,-0.238 -0.542,-0.432 -0.349,-0.432C-0.156,-0.432 0,-0.238 0,0" style="fill:rgb(51,51,51);fill-rule:nonzero;"/>
        </g>
        <g transform="matrix(13.4715,0,0,13.4715,1832.52,1356.54)">
            <path d="M0,21.806C0,43.483 -23.065,50.153 -41.431,50.153C-59.796,50.153 -85.042,46.816 -85.042,25.139C-85.042,3.462 -59.796,-28.347 -41.431,-28.347C-23.065,-28.347 0,0.129 0,21.806" style="fill:rgb(245,241,233);fill-rule:nonzero;"/>
        </g>
        <g transform="matrix(13.4715,0,0,13.4715,1450.64,1244.56)">
            <path d="M0,0C0,0.828 -0.61,1.499 -1.363,1.499C-2.116,1.499 -2.726,0.828 -2.726,0C-2.726,-0.828 -2.116,-1.499 -1.363,-1.499C-0.61,-1.499 0,-0.828 0,0" style="fill:rgb(51,51,51);fill-rule:nonzero;"/>
        </g>
        <g transform="matrix(13.4715,0,0,13.4715,1542.44,1362.06)">
            <path d="M0,0C0,1.656 -1.22,2.998 -2.726,2.998C-4.231,2.998 -5.451,1.656 -5.451,0C-5.451,-1.656 -4.231,-2.998 -2.726,-2.998C-1.22,-2.998 0,-1.656 0,0" style="fill:rgb(51,51,51);fill-rule:nonzero;"/>
        </g>
        <g transform="matrix(13.4715,0,0,13.4715,1101.81,1373.07)">
            <path d="M0,0C0,1.656 -1.22,2.998 -2.726,2.998C-4.231,2.998 -5.451,1.656 -5.451,0C-5.451,-1.656 -4.231,-2.998 -2.726,-2.998C-1.22,-2.998 0,-1.656 0,0" style="fill:rgb(51,51,51);fill-rule:nonzero;"/>
        </g>
        <g transform="matrix(13.4715,0,0,13.4715,1153.22,1255.57)">
            <path d="M0,0C0,0.828 -0.61,1.499 -1.363,1.499C-2.116,1.499 -2.726,0.828 -2.726,0C-2.726,-0.828 -2.116,-1.499 -1.363,-1.499C-0.61,-1.499 0,-0.828 0,0" style="fill:rgb(51,51,51);fill-rule:nonzero;"/>
        </g>
        <g transform="matrix(13.4715,0,0,13.4715,1299.79,1549.04)">
            <path d="M0,-5.826L2.264,-5.624C3.847,-5.483 4.469,-3.497 3.249,-2.478L0.782,-0.416C0.026,0.216 -1.099,0.116 -1.731,-0.64L-2.334,-1.362C-3.892,-3.225 -2.419,-6.042 0,-5.826Z" style="fill:rgb(51,51,51);fill-rule:nonzero;"/>
        </g>
        <g transform="matrix(13.4715,0,0,13.4715,1283.15,1595.14)">
            <path d="M0,-4.375C-0.297,-0.982 3.775,1.061 6.63,1.48C9.651,1.923 12.476,0.161 12.762,-2.973C12.937,-4.895 9.936,-4.883 9.762,-2.973C9.484,0.075 2.786,-1.934 3,-4.375C3.168,-6.298 0.167,-6.287 0,-4.375" style="fill:rgb(51,51,51);fill-rule:nonzero;"/>
        </g>
        <g transform="matrix(13.4715,0,0,13.4715,1281.21,1613.19)">
            <path d="M0,-5.138C-0.102,-1.837 -6.393,-2.718 -6.747,-5.43C-6.994,-7.317 -9.997,-7.342 -9.747,-5.43C-8.902,1.043 2.772,2.204 3,-5.138C3.06,-7.069 0.06,-7.067 0,-5.138" style="fill:rgb(51,51,51);fill-rule:nonzero;"/>
        </g>
        <g transform="matrix(13.4715,0,0,13.4715,1897.75,1502.19)">
            <path d="M0,18.523C-1.639,16.767 -0.249,14.891 2.905,1.957C3.047,1.378 3.332,0.201 4.334,-0.55C6.287,-2.015 9.988,-1.133 11.879,0.616C16.075,4.499 14.888,15.915 8.48,19.081C5.865,20.374 1.881,20.538 0,18.523" style="fill:rgb(217,229,181);fill-rule:nonzero;"/>
        </g>
        <g transform="matrix(13.4715,0,0,13.4715,506.111,1844.6)">
            <path d="M0,-21.085C2.39,-20.848 2.585,-18.521 8.755,-6.725C9.032,-6.196 9.594,-5.125 9.338,-3.898C8.838,-1.508 5.476,0.272 2.901,0.207C-2.814,0.061 -9.46,-9.296 -6.738,-15.906C-5.627,-18.603 -2.743,-21.357 0,-21.085" style="fill:rgb(222,80,80);fill-rule:nonzero;"/>
        </g>
        <g transform="matrix(13.4715,0,0,13.4715,848.257,1617.3)">
            <path d="M0,15.09C-1.491,17.401 -3.997,16.093 -19.403,14.808C-20.093,14.75 -21.494,14.635 -22.628,13.576C-24.837,11.511 -24.924,6.889 -23.514,4.275C-20.384,-1.525 -7.249,-2.311 -1.839,4.783C0.369,7.677 1.711,12.437 0,15.09" style="fill:rgb(255,196,99);fill-rule:nonzero;"/>
        </g>
        <g transform="matrix(13.4715,0,0,13.4715,2012.27,1572.54)">
            <path d="M0,21.613C-2.265,23.174 -4.076,21.003 -17.804,13.894C-18.419,13.575 -19.668,12.931 -20.307,11.517C-21.552,8.761 -19.856,4.461 -17.55,2.59C-12.431,-1.561 -0.003,2.762 2.264,11.39C3.19,14.912 2.6,19.822 0,21.613" style="fill:rgb(246,148,161);fill-rule:nonzero;"/>
        </g>
        <g transform="matrix(13.4715,0,0,13.4715,1076.5,1014.14)">
            <path d="M0,-6.516C0.681,-7.275 1.522,-6.65 7.09,-5.28C7.339,-5.218 7.845,-5.095 8.199,-4.64C8.887,-3.755 8.649,-2.057 7.98,-1.182C6.495,0.759 1.639,0.28 0.072,-2.634C-0.568,-3.823 -0.782,-5.644 0,-6.516" style="fill:rgb(246,148,161);fill-rule:nonzero;"/>
        </g>
        <g transform="matrix(13.4715,0,0,13.4715,1633.11,1560.78)">
            <path d="M0,18.523C-1.639,16.767 -0.249,14.891 2.905,1.957C3.047,1.378 3.332,0.201 4.334,-0.55C6.287,-2.015 9.988,-1.133 11.879,0.616C16.075,4.499 14.888,15.915 8.48,19.081C5.865,20.374 1.881,20.538 0,18.523" style="fill:rgb(255,196,99);fill-rule:nonzero;"/>
        </g>
        <g transform="matrix(13.4715,0,0,13.4715,1376.39,994.772)">
            <path d="M0,-1.341C0.222,-2.358 1.234,-2.324 6.621,-4.385C6.862,-4.477 7.352,-4.665 7.866,-4.493C8.87,-4.158 9.467,-2.621 9.309,-1.516C8.958,0.936 4.596,3.324 1.889,1.819C0.785,1.205 -0.255,-0.174 0,-1.341" style="fill:rgb(255,196,99);fill-rule:nonzero;"/>
        </g>
        <g transform="matrix(13.4715,0,0,13.4715,1751.35,1643.15)">
            <path d="M0,16.151C-1.686,18.324 -4.069,16.803 -19.305,14.183C-19.988,14.066 -21.373,13.83 -22.41,12.676C-24.432,10.426 -24.117,5.815 -22.485,3.333C-18.863,-2.173 -5.71,-1.815 -0.936,5.723C1.011,8.799 1.935,13.657 0,16.151" style="fill:rgb(222,80,80);fill-rule:nonzero;"/>
        </g>
        <g transform="matrix(13.4715,0,0,13.4715,832.575,1845.95)">
            <path d="M0,-21.162C2.276,-20.396 1.945,-18.084 5.318,-5.206C5.469,-4.629 5.778,-3.459 5.253,-2.321C4.231,-0.104 0.556,0.879 -1.939,0.239C-7.477,-1.182 -11.859,-11.79 -7.726,-17.623C-6.039,-20.003 -2.613,-22.041 0,-21.162" style="fill:rgb(246,148,161);fill-rule:nonzero;"/>
        </g>
        <g transform="matrix(13.4715,0,0,13.4715,1245.07,945.61)">
            <path d="M0,4.767C-0.405,5.779 -1.479,5.46 -7.568,6.128C-7.841,6.158 -8.395,6.219 -8.916,5.893C-9.932,5.257 -10.316,3.466 -9.965,2.343C-9.188,-0.15 -4.138,-1.452 -1.497,0.897C-0.418,1.856 0.465,3.605 0,4.767" style="fill:rgb(217,229,181);fill-rule:nonzero;"/>
        </g>
        <g transform="matrix(13.4715,0,0,13.4715,1453.34,946.216)">
            <path d="M0,5.329C-0.639,6.263 -1.636,5.873 -7.865,6.026C-8.144,6.033 -8.71,6.048 -9.154,5.695C-10.019,5.008 -9.985,3.268 -9.374,2.224C-8.018,-0.093 -2.68,-0.934 -0.592,1.518C0.26,2.518 0.734,4.258 0,5.329" style="fill:rgb(222,80,80);fill-rule:nonzero;"/>
        </g>
        <g transform="matrix(13.4715,0,0,13.4715,1347.83,990.277)">
            <path d="M0,0C0,2.145 -2.014,3.884 -4.497,3.884C-6.981,3.884 -8.995,2.145 -8.995,0C-8.995,-2.145 -6.981,-3.884 -4.497,-3.884C-2.014,-3.884 0,-2.145 0,0" style="fill:rgb(253,96,129);fill-rule:nonzero;"/>
        </g>
        <g transform="matrix(13.4715,0,0,13.4715,1142.9,1619.89)">
            <path d="M0,14.242C-1.277,16.678 -3.89,15.601 -19.35,15.707C-20.042,15.712 -21.448,15.723 -22.672,14.77C-25.058,12.912 -25.561,8.317 -24.391,5.587C-21.796,-0.471 -8.786,-2.436 -2.759,4.142C-0.3,6.826 1.466,11.446 0,14.242" style="fill:rgb(217,229,181);fill-rule:nonzero;"/>
        </g>
        <g transform="matrix(13.4715,0,0,13.4715,378.375,2141.71)">
            <path d="M0,-31.532C13.701,-32.945 74.297,-22.082 118.57,-31.532C157.742,-39.893 119.631,-3.54 110.328,4.949C109.1,6.07 107.469,6.714 105.754,6.757C92.469,7.088 33.291,8.361 26.971,5.008C19.847,1.228 -12.213,-30.272 0,-31.532" style="fill:rgb(133,120,184);fill-rule:nonzero;"/>
        </g>
    </g>
</svg>
